# xmcd
#
# Track frame offsets: 
#        150
#        16638
#        31891
#        47765
#        61979
#        79293
#        92687
#        109943
#        126997
#        141972
#        155916
#        169811
#
# Disc length: 2486 seconds
#
# Revision: 0
# Processed by: cddbd v1.5.1PL2 Copyright (c) Steve Scherf et al.
# Submitted via: ExactAudioCopy v0.95b4
#
DISCID=9f09b40c
DTITLE=Quint Randle and Jeff Hinton - Joshua Creek
DYEAR=2006
DGENRE=Country
TTITLE0=Faith, Hope and Charity
TTITLE1=Let It Go
TTITLE2=I Love You Son
TTITLE3=What Kinda Car
TTITLE4=Marry You Again
TTITLE5=Here I Am
TTITLE6=Page C3
TTITLE7=I Saw It All
TTITLE8=Sandlot Stadium
TTITLE9=Life's Like That
TTITLE10=Be Home Soon
TTITLE11=Sing Hallelujah
EXTD=
EXTT0=
EXTT1=
EXTT2=
EXTT3=
EXTT4=
EXTT5=
EXTT6=
EXTT7=
EXTT8=
EXTT9=
EXTT10=
EXTT11=
PLAYORDER=
